<?xml version="1.0" standalone="no"?><!DOCTYPE svg PUBLIC "-//W3C//DTD SVG 1.1//EN" "http://www.w3.org/Graphics/SVG/1.1/DTD/svg11.dtd"><svg t="1500476307115" class="icon" style="" viewBox="0 0 1025 1024" version="1.1" xmlns="http://www.w3.org/2000/svg" p-id="3402" xmlns:xlink="http://www.w3.org/1999/xlink" width="64.0625" height="64"><defs><style type="text/css"></style></defs><path d="M68.977978 431.341982l102.83511 120.91693L171.813087 430.225555c0-7.931646 2.189875-13.879102 6.573719-17.844413 4.379751-3.966335 10.29446-5.947456 17.739013-5.947456 7.682983 0 13.745049 1.981121 18.189268 5.947456 4.441149 3.965312 6.66377 9.912767 6.66377 17.844413l0 161.360038c0 18.006096-9.605775 27.007097-28.815279 27.007097-4.804423 0-9.126868-0.536212-12.966313-1.605567-3.843538-1.077541-7.445576-2.777253-10.806113-5.111414-3.364631-2.330068-6.483668-5.057179-9.365298-8.187473-2.88163-3.123131-5.763261-6.317892-8.644891-9.584286L50.067279 474.585879l0 120.214942c0 7.837502-2.341325 13.762445-7.023974 17.775852-4.682649 4.009314-10.686387 6.014994-18.010189 6.014994-7.564279 0-13.629415-2.02717-18.189268-6.086625-4.562922-4.059456-6.843872-9.955746-6.843872-17.704221L-2.3e-05 436.520935c0-6.716982 0.958838-11.987009 2.88163-15.812127 2.279926-4.199649 6.062066-7.628748 11.345396-10.287297 5.28026-2.65855 10.986215-3.986801 17.10968-3.986801 4.801353 0 8.91402 0.604774 12.335956 1.818415 3.421936 1.214664 6.42227 2.845815 9.005095 4.898567 2.579755 2.052752 5.222955 4.711302 7.924483 7.974625C63.304768 424.393733 66.096347 427.797249 68.977978 431.341982z" p-id="3403" fill="#d81e06"></path><path d="M642.426492 431.341982 745.262625 552.258912 745.262625 430.225555c0-7.931646 2.189875-13.879102 6.573719-17.844413 4.379751-3.966335 10.29446-5.947456 17.739013-5.947456 7.682983 0 13.746072 1.981121 18.189268 5.947456 4.442172 3.965312 6.66377 9.912767 6.66377 17.844413l0 161.360038c0 18.006096-9.605775 27.007097-28.814256 27.007097-4.805446 0-9.127891-0.536212-12.967336-1.605567-3.843538-1.077541-7.444553-2.777253-10.806113-5.111414-3.364631-2.330068-6.483668-5.057179-9.365298-8.187473-2.880607-3.123131-5.763261-6.317892-8.643867-9.584286l-100.313683-119.516024 0 120.214942c0 7.837502-2.341325 13.762445-7.023974 17.775852-4.681626 4.009314-10.686387 6.014994-18.009166 6.014994-7.565303 0-13.629415-2.02717-18.190291-6.086625-4.562922-4.059456-6.843872-9.955746-6.843872-17.704221L573.450537 436.520935c0-6.716982 0.958838-11.987009 2.88163-15.812127 2.279926-4.199649 6.062066-7.628748 11.346419-10.287297 5.28026-2.65855 10.985192-3.986801 17.108656-3.986801 4.801353 0 8.915044 0.604774 12.33698 1.818415 3.421936 1.214664 6.42227 2.845815 9.005095 4.898567 2.579755 2.052752 5.222955 4.711302 7.924483 7.974625C636.753282 424.393733 639.544861 427.797249 642.426492 431.341982z" p-id="3404" fill="#d81e06"></path><path d="M828.480955 575.209624l59.072397-67.035766-49.706075-59.618842c-4.682649-5.780657-8.194636-10.751878-10.535961-14.901385-2.341325-4.1536-3.511987-8.140401-3.511987-11.965519 0-3.919263 2.25025-7.441483 6.753821-10.568706 4.501524-3.123131 9.995655-4.685719 16.479323-4.685719 7.441483 0 13.237489 1.699712 17.378809 5.107321s9.872858 9.725502 17.199731 18.959817l39.621393 49.822732 42.321898-49.822732c3.479241-4.196579 6.451946-7.786337 8.915044-10.772344 2.460028-2.986007 4.831029-5.460362 7.114025-7.419993 2.279926-1.959631 4.830005-3.430122 7.653307-4.405333 2.820232-0.980327 6.090718-1.469468 9.815553-1.469468 6.721075 0 12.214183 1.562589 16.479323 4.685719 4.261047 3.127224 6.393617 6.836709 6.393617 11.126408 0 6.252401-4.625344 14.742772-13.867846 25.469068l-52.0474 60.458977 56.009641 67.035766c5.042853 5.877871 8.702196 10.751878 10.985192 14.624069 2.28095 3.871167 3.421936 7.534604 3.421936 10.985192 0 3.266393-1.022283 6.252401-3.061732 8.958022-2.041496 2.705622-4.924149 4.851495-8.643867 6.436596-3.724835 1.585101-7.924483 2.37714-12.606109 2.37714-5.042853 0-9.307993-0.817622-12.787234-2.449795-3.482311-1.62808-6.302543-3.659343-8.463766-6.086625-2.161223-2.424212-6.184863-7.136537-12.066827-14.134929l-46.464241-56.816007-49.346895 58.495252c-3.843538 4.668323-6.573719 7.931646-8.194636 9.797134-1.620917 1.868557-3.573385 3.687996-5.853311 5.456269-2.282996 1.775436-4.985548 3.174296-8.104585 4.199649-3.123131 1.026376-6.786567 1.538029-10.985192 1.538029-6.483668 0-11.858072-1.538029-16.119119-4.618181-4.26514-3.079128-6.393617-7.557116-6.393617-13.434987C815.333517 593.637322 819.713267 585.194022 828.480955 575.209624z" p-id="3405" fill="#d81e06"></path><path d="M549.821374 473.577922l0-41.955554c0-8.489348-2.493797-14.811334-7.475252-18.959817-4.984524-4.1536-11.496845-6.227842-19.540032-6.227842-7.80578 0-14.170744 2.096754-19.0908 6.29538-4.924149 4.199649-7.384178 10.496052-7.384178 18.892279l0 41.955554L549.821374 473.577922z" p-id="3406" fill="#d81e06"></path><path d="M496.332136 506.772952l0 86.48984c0 8.396227 2.488681 14.718213 7.474228 18.96391 4.981455 4.242627 11.313673 6.364965 19.000749 6.364965 8.042163 0 14.555507-2.096754 19.540032-6.29538 4.981455-4.199649 7.475252-10.543124 7.475252-19.033495l0-86.48984L496.332136 506.772952z" p-id="3407" fill="#d81e06"></path><path d="M339.670096 491.01813c-9.822716 1.408069-17.386996 9.840112-17.386996 20.055778 0 11.202133 9.083889 20.286022 20.286022 20.286022l74.571393 0-24.681122 44.815695-77.787644 0-31.102369-66.912969 34.002418-63.282279 75.345012 0 10.261715 21.373797 45.00603 0-29.738301-61.945841L293.316372 405.408333l-55.094806 102.536304 50.567699 108.804055 127.645169 0 69.239967-125.729539L339.670096 491.019153z" p-id="3408" fill="#d81e06"></path></svg>