<?xml version="1.0" standalone="no"?><!DOCTYPE svg PUBLIC "-//W3C//DTD SVG 1.1//EN" "http://www.w3.org/Graphics/SVG/1.1/DTD/svg11.dtd"><svg t="1502696040150" class="icon" style="" viewBox="0 0 1025 1024" version="1.1" xmlns="http://www.w3.org/2000/svg" p-id="2394" xmlns:xlink="http://www.w3.org/1999/xlink" width="200.1953125" height="200"><defs><style type="text/css"></style></defs><path d="M311.247 441.391l-53.981 0-22.17 134.622 50.445 0c0 0 61.372 1.896 64.264-87.219C352.697 437.6 311.247 441.391 311.247 441.391zM772.013 441.391l-53.981 0-22.17 134.622 50.446 0c0 0 61.371 1.896 64.263-87.219C813.462 437.6 772.013 441.391 772.013 441.391zM512.492 215.327c-283.043 0-512.492 142.618-512.492 318.546 0 175.927 229.45 318.545 512.492 318.545C795.533 852.418 1024.983 709.8 1024.983 533.873 1024.983 357.945 795.533 215.327 512.492 215.327zM282.971 626.071l-54.623-0.507-15.422 84.692-58.479 0 52.695-318.543c0 0 74.866 1.138 124.027 0 49.16-1.138 97.503 39.857 74.867 132.727C379.044 635.172 282.971 626.071 282.971 626.071zM545.807 626.071c0 0 14.038-74.026 20.184-125.424 2.529-21.157 13.556-56.98-15.665-57.064-24.472-0.072-61.07-0.295-61.07-0.295l-30.846 182.784-57.838 0 53.982-320.063 59.224 0-14.881 85.682 61.049 0c0 0 80.972-7.561 71.331 71.317-9.639 78.878-27.633 163.064-27.633 163.064L545.807 626.072zM866.801 524.44c-26.99 110.731-123.063 101.631-123.063 101.631l-54.623-0.507-15.423 84.692-58.479 0 52.696-318.543c0 0 74.865 1.138 124.026 0C841.095 390.576 889.437 431.571 866.801 524.44z" p-id="2395" fill="#2c2c2c"></path></svg>